<?xml version="1.0" encoding="UTF-8" ?>

<svg xmlns="http://www.w3.org/2000/svg" viewBox="0 0 2560 2560">
  <g fill="rgb(30,158,196)">
    <path d="M1003 2535 c-504 -92 -890 -480 -978 -982 -19 -113 -19 -303 1 -416 17 -99 63 -246 101 -322 118 -234 336 -449 568 -560 390 -187 872 -144 1223 108 35 26 45 29 52 17 14 -23 22 -6 33 78 l10 79 79 10 c83 11 101 19 79 32 -11 7 -3 24 33 74 245 344 285 827 100 1214 -111 232 -324 448 -559 566 -76 38 -223 84 -322 101 -106 19 -318 19 -420 1z m364 -340 c192 -40 349 -128 480 -268 114 -122 185 -257 224 -425 53 -228 -14 -502 -171 -701 -23 -29 -40 -61 -40 -76 0 -20 -5 -25 -25 -25 -15 0 -54 -22 -97 -56 -172 -133 -410 -205 -603 -182 -444 53 -795 439 -795 874 0 323 200 634 507 788 64 32 172 67 243 79 59 10 214 6 277 -8z"></path>
    <path d="M1043 1955 c-105 -23 -189 -71 -280 -160 -89 -88 -137 -171 -168 -290 -19 -76 -20 -260 0 -343 40 -167 167 -324 325 -400 100 -48 169 -62 303 -62 146 0 279 41 385 119 33 25 42 37 42 61 0 27 3 30 30 30 23 0 35 9 58 43 90 131 116 228 109 412 -5 144 -24 215 -88 321 -44 73 -148 170 -226 212 -128 68 -331 91 -490 57z m285 -384 c83 -43 155 -154 155 -236 0 -41 -39 -145 -54 -145 -5 0 -9 -13 -9 -30 0 -21 -5 -30 -16 -30 -9 0 -46 -14 -81 -32 -82 -40 -138 -41 -208 -5 -87 46 -132 97 -160 185 -17 51 -17 56 1 114 19 65 78 140 139 178 67 41 154 42 233 1z"></path>
  </g>

  <g fill="rgb(223,247,255)">
    <path d="M1129 2238 c-218 -16 -417 -113 -573 -278 -115 -122 -182 -247 -227 -418 -29 -110 -29 -296 0 -416 90 -375 403 -649 792 -696 218 -25 467 45 646 183 52 40 74 52 82 44 8 -8 11 -5 11 11 0 17 6 22 26 22 22 0 24 2 15 14 -10 12 -5 25 28 66 58 74 125 202 156 300 22 70 28 110 32 227 5 122 3 155 -16 235 -39 168 -110 303 -224 425 -194 207 -451 304 -748 281z m235 -318 c104 -26 187 -72 266 -147 119 -112 179 -243 187 -408 4 -72 1 -119 -11 -169 -17 -71 -68 -179 -110 -231 -20 -25 -26 -28 -40 -16 -14 12 -16 10 -16 -13 0 -20 -5 -26 -21 -26 -18 0 -19 -3 -9 -14 9 -12 4 -21 -32 -47 -134 -99 -314 -139 -484 -108 -214 38 -418 234 -469 451 -19 82 -19 208 0 283 9 33 31 94 51 135 46 98 167 220 267 268 127 63 281 78 421 42z"></path>
    <path d="M1142 1630 c-57 -12 -102 -41 -155 -100 -132 -147 -86 -373 96 -467 42 -22 66 -27 127 -27 65 -1 84 3 138 30 42 21 65 27 72 20 7 -7 10 -1 10 17 0 21 5 27 21 27 18 0 19 2 9 15 -7 8 -8 15 -2 15 5 0 20 24 33 53 32 71 32 172 1 243 -58 129 -207 204 -350 174z"></path>
  </g>
  <g fill="rgb(255,200,72)">
    <path d="M2010 571 c0 -16 -6 -21 -26 -21 -22 0 -24 -2 -14 -15 6 -8 9 -23 6 -33 -4 -10 -9 -59 -11 -108 l-5 -89 145 -145 c79 -79 146 -142 148 -140 2 3 9 47 16 99 l12 95 -123 124 c-68 69 -115 122 -105 119 12 -5 17 -1 17 13 0 11 7 20 15 20 9 0 12 6 8 18 -3 9 53 -41 124 -112 l131 -128 73 11 c138 22 140 4 -21 166 l-144 145 -99 -5 c-54 -3 -103 -8 -108 -11 -6 -3 -16 0 -24 6 -12 10 -15 9 -15 -9z"></path>
  </g>
  <g fill="rgb(89,65,57)">
    <path d="M1189 1348 c-11 -21 23 -58 586 -616 359 -355 605 -592 615 -590 51 10 20 44 -565 636 -361 364 -594 592 -606 592 -10 0 -24 -10 -30 -22z"></path>
  </g>
</svg>
