<?xml version="1.0" encoding="UTF-8" ?>

<svg xmlns="http://www.w3.org/2000/svg" viewBox="0 0 7200 4800">

  <g fill="rgb(255,255,255)">
    <path d="M0 2400 l0 -2400 3600 0 3600 0 0 2400 0 2400 -3600 0 -3600 0 0 -2400z m5840 1489 c-59 -14 -428 -98 -545 -124 -60 -13 -240 -54 -400 -90 -159 -36 -452 -102 -650 -147 -694 -155 -625 -137 -625 -167 0 -25 -51 -102 -91 -135 -112 -95 -250 -86 -352 23 -54 58 -91 149 -82 200 17 90 91 185 174 222 94 42 182 24 266 -53 l56 -51 78 6 c44 3 121 13 172 22 52 8 229 35 394 60 165 25 372 56 460 70 88 13 300 45 470 71 171 25 389 59 485 74 176 28 260 36 190 19z m210 -384 l0 -45 -355 0 -355 0 0 24 c0 27 -15 25 375 46 105 6 208 12 230 14 113 8 105 11 105 -39z m-285 -245 c110 -6 220 -13 243 -16 l44 -6 -7 -36 c-4 -20 -9 -39 -11 -42 -3 -2 -156 13 -342 33 -185 21 -343 37 -349 37 -7 0 -13 12 -13 27 l0 26 118 -6 c64 -4 207 -12 317 -17z m-141 -261 c166 -28 320 -53 344 -56 33 -4 41 -9 38 -22 -3 -9 -8 -28 -11 -42 l-7 -27 -61 15 c-34 8 -132 30 -217 49 -85 19 -202 46 -260 60 -58 13 -115 26 -127 29 -24 6 -33 45 -12 45 7 0 147 -23 313 -51z m-4527 -289 c156 -423 471 -815 863 -1073 142 -93 357 -197 520 -251 152 -51 231 -68 410 -92 176 -23 527 -15 690 15 540 101 975 376 1306 827 l60 81 180 -131 c100 -72 227 -164 283 -204 l101 -74 -32 -41 c-51 -68 -244 -254 -350 -338 -414 -330 -916 -533 -1428 -579 -423 -37 -912 56 -1294 246 -315 157 -576 352 -780 582 -263 298 -442 624 -540 984 -35 131 -55 231 -34 173 6 -16 26 -73 45 -125z m4443 36 c140 -41 284 -82 320 -92 36 -9 66 -18 67 -19 1 0 -2 -18 -8 -39 -8 -28 -15 -37 -27 -33 -9 3 -159 55 -333 117 -283 100 -316 114 -312 131 4 13 11 18 22 14 9 -2 131 -38 271 -79z m-57 -262 c166 -70 310 -131 319 -135 14 -8 15 -14 6 -39 -5 -17 -15 -30 -22 -30 -6 0 -108 48 -226 106 -118 58 -257 126 -307 150 -71 33 -91 47 -87 59 3 8 8 15 11 15 3 0 140 -57 306 -126z m-263 -160 c74 -41 208 -116 297 -166 l162 -90 -15 -30 c-10 -20 -20 -28 -31 -24 -41 16 -573 363 -573 374 0 22 23 13 160 -64z"></path>
  </g>

  <g fill="rgb(44,61,80)">
    <path d="M5815 3930 c-209 -33 -517 -80 -685 -105 -168 -25 -377 -57 -465 -70 -380 -58 -930 -141 -997 -151 -47 -6 -49 -5 -103 45 -66 59 -113 76 -210 75 -118 -2 -207 -59 -261 -167 -111 -219 89 -477 330 -427 96 20 208 116 223 192 8 42 -75 18 628 176 198 45 491 111 650 147 160 36 340 77 400 90 61 13 200 45 310 70 110 25 286 64 390 87 105 23 194 45 198 49 12 10 -2 49 -16 48 -7 0 -183 -27 -392 -59z"></path>
    <path d="M5830 3569 c-69 -4 -212 -12 -319 -19 -107 -6 -197 -13 -200 -15 -3 -2 -4 -26 -3 -54 l4 -51 386 2 387 3 -1 25 c0 14 -1 46 -2 73 l-2 47 -62 -1 c-35 -1 -119 -5 -188 -10z"></path>
    <path d="M974 3210 c4 -201 24 -350 71 -536 218 -858 907 -1544 1780 -1774 817 -215 1664 -34 2333 499 120 95 302 274 365 358 l47 61 -208 149 c-114 82 -255 184 -313 226 -58 42 -108 77 -111 77 -3 0 -36 -42 -73 -93 -249 -339 -540 -570 -906 -721 -363 -149 -816 -186 -1239 -100 -127 26 -338 101 -485 174 -239 117 -418 245 -603 431 -350 352 -558 775 -643 1309 l-18 115 3 -175z"></path>
    <path d="M5299 3260 c-2 -29 0 -54 6 -56 21 -7 757 -85 761 -81 3 3 8 36 11 75 l6 70 -44 6 c-46 6 -336 22 -590 33 l-147 6 -3 -53z"></path>
    <path d="M5276 3078 c-10 -31 -16 -98 -9 -98 5 0 44 -9 88 -19 44 -10 170 -39 280 -64 110 -25 240 -55 289 -67 49 -11 90 -19 91 -18 6 7 33 143 30 148 -3 4 -26 10 -52 13 -26 4 -194 31 -373 62 -178 30 -328 55 -332 55 -5 0 -10 -6 -12 -12z"></path>
    <path d="M5219 2843 c-31 -81 -50 -68 248 -171 147 -52 311 -109 363 -128 52 -18 98 -30 101 -26 4 4 14 32 23 62 10 30 19 60 22 67 3 7 -17 18 -53 28 -32 9 -197 56 -366 106 -170 49 -313 89 -318 89 -5 0 -14 -12 -20 -27z"></path>
    <path d="M5132 2615 c-12 -25 -22 -48 -22 -50 0 -3 78 -43 173 -89 94 -46 247 -120 339 -165 91 -44 173 -81 181 -81 13 0 75 126 66 134 -7 5 -704 296 -710 296 -3 0 -15 -20 -27 -45z"></path>
    <path d="M5029 2418 c-13 -24 -24 -46 -24 -50 0 -6 641 -418 650 -418 6 0 75 117 75 127 0 5 -73 50 -162 100 -90 50 -241 134 -336 187 -94 53 -174 96 -175 96 -2 0 -14 -19 -28 -42z"></path>
  </g>
</svg>
