<?xml version="1.0" encoding="utf-8" ?>
<svg xmlns="http://www.w3.org/2000/svg" viewBox="0 0 10240 10240">
  <g fill="rgb(243, 243, 243)">
    <g style="transform: none;">
      <path d="M2385 6784 c-387 -85 -669 -454 -642 -841 14 -202 88 -371 226 -517 312 -329 831 -338 1155 -21 174 171 255 377 243 624 -16 347 -240 632 -582 741 -93 30 -297 37 -400 14z m246 -468 c138 -32 232 -130 258 -268 27 -151 -50 -301 -189 -367 -47 -22 -69 -26 -145 -26 -78 0 -97 4 -146 28 -66 32 -132 99 -162 165 -18 38 -22 66 -22 142 0 99 12 136 68 212 32 43 115 96 177 112 69 19 92 19 161 2z"></path>
      <path d="M6721 6790 c-304 -64 -548 -288 -631 -582 -28 -95 -37 -263 -20 -354 17 -94 61 -212 106 -286 48 -79 162 -199 238 -251 62 -41 181 -100 229 -111 l28 -7 -7 48 c-12 70 -8 307 5 387 l12 69 -45 46 c-95 97 -124 236 -76 364 24 65 94 144 156 175 56 29 150 45 199 34 l40 -8 100 102 c85 86 239 213 279 227 28 11 -146 104 -249 132 -70 19 -298 29 -364 15z"></path>
      <path d="M3616 6138 c14 -66 7 -270 -14 -369 -50 -239 -186 -463 -373 -612 -88 -71 -240 -154 -339 -185 -260 -83 -557 -64 -795 52 -288 140 -499 401 -578 715 -18 71 -22 115 -22 254 l0 167 -25 -4 c-14 -3 -47 -8 -75 -11 -27 -3 -92 -17 -144 -31 -215 -56 -330 -161 -362 -330 -18 -96 3 -412 42 -635 l12 -66 141 -38 c335 -90 565 -183 630 -256 39 -42 41 -50 26 -80 -31 -56 -149 -74 -442 -66 l-227 7 9 -25 c35 -93 109 -203 184 -273 92 -87 123 -97 421 -132 487 -57 740 -99 1025 -171 220 -55 368 -107 535 -189 160 -79 205 -111 480 -346 606 -514 897 -695 1197 -744 41 -6 539 -10 1403 -10 1467 0 1411 -2 1542 59 282 132 481 494 598 1085 14 71 24 131 22 133 -2 2 -42 -6 -88 -17 -46 -11 -128 -23 -182 -27 -88 -5 -98 -8 -102 -27 -2 -12 -22 -93 -43 -181 -83 -339 -208 -571 -344 -639 l-52 -26 -658 0 -658 0 -5 22 c-3 13 -50 237 -106 498 -55 261 -102 483 -105 493 -5 16 30 17 633 17 l638 1 -54 32 c-166 99 -327 245 -435 397 -58 80 -151 250 -174 318 -7 21 -17 32 -30 32 -45 0 -217 51 -295 88 -114 53 -197 111 -290 201 -96 93 -162 181 -215 286 -87 174 -116 306 -111 516 l4 149 -1103 0 -1104 0 8 -32z m2247 -2495 c59 -280 108 -511 107 -515 0 -5 -227 -8 -504 -8 -484 0 -507 1 -572 21 -141 43 -291 128 -496 281 -105 79 -189 147 -558 458 -128 108 -223 177 -340 248 l-35 22 1146 0 1145 0 107 -507z"></path>
    </g>
  </g>
  <g fill="rgb(29,116,183)">
    <path d="M9095 7461 c-22 -10 -50 -29 -62 -42 -11 -13 -105 -170 -208 -349 -103 -179 -191 -329 -196 -334 -4 -5 -22 -2 -42 8 -19 9 -42 16 -50 16 -28 0 -66 -41 -109 -115 -29 -52 -47 -74 -58 -71 -123 35 -381 41 -508 12 -373 -84 -669 -312 -832 -641 -85 -172 -120 -323 -120 -521 0 -656 526 -1184 1180 -1184 615 0 1118 458 1181 1077 31 304 -83 656 -287 882 l-46 52 46 79 c57 99 59 130 11 174 -19 18 -35 35 -35 39 0 3 82 147 182 319 99 172 189 331 199 353 24 51 23 99 0 150 -45 98 -152 140 -246 96z m-745 -1186 c304 -98 513 -313 601 -617 30 -105 37 -297 14 -409 -80 -397 -407 -684 -817 -715 -151 -12 -356 34 -488 108 -182 103 -332 276 -399 458 -47 129 -55 180 -55 330 1 127 4 156 28 235 83 273 272 482 531 586 119 47 194 59 355 55 125 -3 157 -7 230 -31z"></path>
  </g>
</svg>
