<?xml version="1.0" encoding="UTF-8" ?>

<svg xmlns="http://www.w3.org/2000/svg" viewBox="0 0 8150 8150">
  <g fill="rgb(254,254,254)">
    <path d="M0 4075 l0 -4075 4075 0 4075 0 0 1945 c0 1722 -2 1945 -15 1945 -12 0 -15 -13 -15 -55 0 -30 -4 -55 -9 -55 -4 0 -11 -43 -15 -95 -15 -219 -95 -593 -181 -852 -168 -500 -442 -982 -786 -1378 -100 -114 -338 -351 -449 -446 -501 -429 -1149 -745 -1805 -878 -328 -67 -539 -86 -888 -78 -431 9 -760 67 -1177 206 -1019 341 -1849 1063 -2341 2037 -241 479 -399 1072 -415 1564 -5 155 -4 167 15 198 28 43 94 74 130 60 32 -12 69 -45 86 -79 8 -15 18 -94 24 -196 45 -716 259 -1345 654 -1918 229 -332 547 -659 873 -897 545 -396 1162 -633 1832 -702 285 -30 773 -18 1014 24 32 5 86 15 121 21 109 18 341 78 478 123 548 179 1024 468 1440 873 807 787 1209 1848 1129 2983 -21 290 -82 617 -161 865 -26 81 -38 134 -33 148 19 62 90 115 137 103 47 -11 84 -53 111 -124 86 -227 196 -755 196 -938 0 -24 5 -44 10 -44 6 0 10 -16 10 -35 0 -24 5 -35 15 -35 13 0 15 221 15 1930 l0 1930 -1905 0 c-1687 0 -1905 -2 -1905 -15 0 -10 10 -15 30 -15 17 0 30 -4 30 -9 0 -4 38 -11 84 -15 46 -3 151 -17 232 -31 389 -66 779 -193 1142 -372 119 -59 162 -99 162 -152 0 -37 -38 -90 -82 -112 l-40 -20 -156 74 c-398 188 -771 297 -1207 354 -198 25 -719 25 -920 0 -751 -97 -1402 -378 -1969 -853 -150 -125 -402 -382 -520 -529 -196 -245 -389 -567 -538 -902 -49 -107 -126 -133 -197 -65 -61 58 -61 73 -1 209 432 982 1263 1771 2270 2156 326 125 728 222 1006 243 46 4 84 11 84 15 0 5 20 9 45 9 33 0 45 4 45 15 0 13 -220 15 -1920 15 l-1920 0 0 -4075z m6521 3204 c269 -205 566 -503 771 -775 199 -263 427 -655 414 -710 -9 -34 -56 -85 -92 -100 -63 -27 -108 9 -178 141 -262 494 -626 928 -1053 1253 -114 87 -135 133 -91 198 28 41 65 63 104 64 24 0 55 -17 125 -71z m-3273 -39 c43 -26 74 -93 60 -129 -20 -54 -58 -79 -172 -117 -613 -201 -1127 -568 -1513 -1080 -323 -428 -531 -975 -584 -1537 -17 -184 -7 -594 19 -762 45 -290 126 -569 232 -800 58 -128 64 -139 120 -240 261 -465 635 -849 1092 -1121 266 -158 508 -258 816 -338 139 -35 169 -52 199 -109 27 -52 -11 -123 -82 -153 -29 -12 -44 -11 -133 11 -483 117 -983 375 -1367 705 -119 103 -343 334 -430 443 -196 247 -358 517 -476 792 -82 193 -168 483 -208 706 -147 810 33 1677 493 2374 212 321 501 626 811 856 274 203 613 379 941 488 106 36 138 37 182 11z m2577 -355 c352 -220 705 -555 953 -901 310 -435 509 -943 589 -1506 24 -175 24 -622 -1 -798 -90 -635 -320 -1173 -715 -1670 -98 -123 -379 -405 -501 -501 -285 -225 -569 -389 -891 -515 -315 -123 -724 -213 -985 -218 -69 -1 -87 2 -111 20 -34 25 -73 81 -73 104 0 23 39 79 72 103 21 16 57 22 180 33 511 46 948 189 1366 448 687 426 1189 1140 1356 1931 74 356 86 791 31 1158 -71 470 -273 957 -554 1331 -229 306 -451 516 -769 730 -148 100 -187 142 -178 189 8 38 34 71 76 96 44 26 65 22 155 -34z m-2462 -1308 c136 -402 247 -737 247 -742 0 -6 -14 -19 -31 -29 -56 -33 -175 -154 -229 -232 -104 -150 -150 -310 -150 -519 0 -276 75 -463 260 -645 101 -101 205 -165 340 -212 l95 -33 200 0 c193 1 203 2 285 29 245 82 415 227 527 451 119 235 120 581 2 818 -65 131 -182 269 -282 333 -26 16 -47 32 -47 35 0 4 462 1372 495 1467 6 18 232 -98 366 -188 156 -103 260 -190 399 -329 590 -593 842 -1442 664 -2241 -215 -962 -990 -1717 -1956 -1905 -603 -117 -1203 -2 -1752 337 -270 167 -571 460 -747 728 -312 473 -459 1040 -408 1566 81 840 583 1581 1340 1978 68 36 126 66 129 66 3 0 116 -330 253 -733z"></path>
  </g>
  <g fill="rgb(15,134,67)">
    <path d="M3690 8134 c-377 -39 -718 -120 -1060 -251 -1006 -384 -1838 -1174 -2269 -2154 -71 -161 -68 -222 15 -285 28 -22 47 -28 88 -28 75 -1 119 29 154 107 149 335 342 657 538 902 118 147 370 404 520 529 567 475 1219 757 1969 853 199 25 664 25 860 0 435 -56 811 -166 1205 -353 168 -80 197 -86 259 -54 83 42 111 149 59 227 -21 32 -47 50 -140 96 -436 215 -891 349 -1388 408 -149 18 -651 20 -810 3z"></path>
    <path d="M6325 7370 c-56 -28 -89 -80 -89 -138 1 -68 24 -104 117 -174 427 -325 791 -759 1053 -1253 68 -127 94 -150 176 -150 63 0 97 19 136 75 35 52 30 105 -22 208 -95 190 -233 409 -375 597 -203 269 -504 572 -769 773 -113 86 -155 98 -227 62z"></path>
    <path d="M5640 6949 c-53 -31 -73 -65 -78 -129 -5 -79 17 -106 180 -216 238 -160 450 -345 609 -529 512 -596 770 -1316 746 -2085 -15 -456 -111 -847 -308 -1245 -360 -730 -984 -1275 -1756 -1533 -229 -77 -452 -122 -721 -146 -123 -11 -159 -17 -180 -33 -97 -72 -96 -195 1 -267 53 -39 283 -25 594 35 524 102 1012 329 1453 678 122 96 403 378 501 501 395 497 625 1034 716 1670 25 178 25 682 0 858 -96 671 -355 1252 -775 1742 -124 143 -316 330 -458 444 -118 94 -343 249 -388 266 -43 16 -98 12 -136 -11z"></path>
    <path d="M2978 6287 c-1343 -679 -1788 -2357 -959 -3617 176 -268 477 -561 747 -728 417 -257 852 -382 1332 -382 407 0 764 86 1127 270 523 265 927 693 1163 1232 207 471 259 1023 146 1538 -98 448 -336 881 -664 1211 -209 209 -401 349 -657 477 -84 42 -154 74 -156 71 -2 -2 -47 -132 -100 -289 -52 -157 -169 -504 -260 -772 l-166 -488 61 -42 c117 -79 221 -200 287 -335 114 -230 113 -530 -2 -758 -112 -224 -283 -370 -527 -451 -80 -26 -96 -28 -255 -28 -166 -1 -172 0 -265 32 -52 18 -131 54 -175 80 -95 56 -233 189 -293 282 -84 130 -132 299 -132 465 0 310 154 579 429 752 7 4 -521 1553 -529 1553 -5 0 -73 -33 -152 -73z"></path>
  </g>
  <g fill="rgb(87,171,124)">
    <path d="M3868 8143 c12 -2 30 -2 40 0 9 3 -1 5 -23 4 -22 0 -30 -2 -17 -4z"></path>
    <path d="M4238 8143 c12 -2 30 -2 40 0 9 3 -1 5 -23 4 -22 0 -30 -2 -17 -4z"></path>
    <path d="M7689 5476 c-43 -29 -69 -79 -69 -131 0 -21 18 -93 40 -162 126 -395 187 -885 162 -1306 -18 -293 -47 -484 -117 -752 -266 -1027 -1000 -1925 -1959 -2399 -397 -196 -762 -303 -1276 -371 -25 -4 -169 -9 -320 -12 -217 -4 -310 -2 -440 12 -775 79 -1486 382 -2069 881 -140 120 -375 362 -484 499 -288 360 -494 740 -637 1174 -109 333 -162 625 -186 1033 -5 87 -10 114 -27 140 -52 75 -129 96 -207 56 -63 -32 -89 -86 -84 -170 2 -35 6 -117 9 -184 22 -470 183 -1059 414 -1518 492 -974 1322 -1696 2341 -2037 430 -143 747 -198 1208 -206 383 -7 584 10 917 78 656 133 1304 449 1805 878 198 169 460 446 612 647 542 716 828 1569 828 2470 0 169 -4 221 -36 493 -39 329 -165 812 -227 868 -56 51 -139 59 -198 19z"></path>
  </g>
  <g fill="rgb(112,182,143)">
    <path d="M4293 8143 c15 -2 37 -2 50 0 12 2 0 4 -28 4 -27 0 -38 -2 -22 -4z"></path>
    <path d="M3145 7293 c-138 -35 -395 -138 -580 -233 -347 -177 -605 -369 -885 -656 -355 -365 -599 -762 -763 -1244 -182 -533 -227 -1126 -126 -1679 40 -223 126 -513 208 -706 118 -275 280 -545 476 -792 87 -109 311 -340 430 -443 327 -281 735 -509 1154 -644 135 -44 305 -86 345 -86 40 0 107 34 130 67 26 36 33 121 13 159 -30 58 -60 75 -199 110 -308 80 -550 180 -816 338 -457 272 -831 656 -1092 1121 -56 101 -62 112 -120 240 -106 231 -187 511 -232 800 -26 169 -35 525 -19 702 53 562 260 1109 584 1537 386 512 900 879 1514 1081 90 29 118 43 142 70 103 117 -11 296 -164 258z"></path>
    <path d="M7800 5490 c0 -5 7 -10 15 -10 8 0 15 5 15 10 0 6 -7 10 -15 10 -8 0 -15 -4 -15 -10z"></path>
    <path d="M8120 4066 c0 -101 3 -125 15 -130 13 -5 15 13 15 124 0 109 -2 130 -15 130 -13 0 -15 -20 -15 -124z"></path>
    <path d="M140 4151 c0 -16 18 -22 45 -15 37 9 31 24 -10 24 -19 0 -35 -4 -35 -9z"></path>
    <path d="M310 3860 c0 -5 7 -10 15 -10 8 0 15 5 15 10 0 6 -7 10 -15 10 -8 0 -15 -4 -15 -10z"></path>
    <path d="M3070 460 c0 -5 7 -10 15 -10 8 0 15 5 15 10 0 6 -7 10 -15 10 -8 0 -15 -4 -15 -10z"></path>
    <path d="M3150 440 c0 -5 7 -10 15 -10 8 0 15 5 15 10 0 6 -7 10 -15 10 -8 0 -15 -4 -15 -10z"></path>
    <path d="M3190 430 c0 -5 7 -10 15 -10 8 0 15 5 15 10 0 6 -7 10 -15 10 -8 0 -15 -4 -15 -10z"></path>
    <path d="M3230 420 c0 -5 7 -10 15 -10 8 0 15 5 15 10 0 6 -7 10 -15 10 -8 0 -15 -4 -15 -10z"></path>
    <path d="M3280 410 c0 -5 7 -10 15 -10 8 0 15 5 15 10 0 6 -7 10 -15 10 -8 0 -15 -4 -15 -10z"></path>
    <path d="M3330 400 c0 -5 7 -10 15 -10 8 0 15 5 15 10 0 6 -7 10 -15 10 -8 0 -15 -4 -15 -10z"></path>
    <path d="M3380 390 c0 -5 7 -10 15 -10 8 0 15 5 15 10 0 6 -7 10 -15 10 -8 0 -15 -4 -15 -10z"></path>
    <path d="M3430 380 c0 -5 9 -10 20 -10 11 0 20 5 20 10 0 6 -9 10 -20 10 -11 0 -20 -4 -20 -10z"></path>
    <path d="M3500 370 c0 -5 7 -10 15 -10 8 0 15 5 15 10 0 6 -7 10 -15 10 -8 0 -15 -4 -15 -10z"></path>
    <path d="M3570 360 c0 -5 7 -10 15 -10 8 0 15 5 15 10 0 6 -7 10 -15 10 -8 0 -15 -4 -15 -10z"></path>
    <path d="M3650 350 c0 -5 7 -10 15 -10 8 0 15 5 15 10 0 6 -7 10 -15 10 -8 0 -15 -4 -15 -10z"></path>
    <path d="M3750 340 c0 -5 9 -10 20 -10 11 0 20 5 20 10 0 6 -9 10 -20 10 -11 0 -20 -4 -20 -10z"></path>
    <path d="M4360 340 c19 -13 30 -13 30 0 0 6 -10 10 -22 10 -19 0 -20 -2 -8 -10z"></path>
    <path d="M3900 331 c0 -17 19 -23 50 -16 43 9 37 25 -10 25 -22 0 -40 -4 -40 -9z"></path>
    <path d="M4150 333 c8 -2 25 -9 37 -15 23 -12 53 -5 53 12 0 6 -23 10 -52 9 -29 0 -46 -3 -38 -6z"></path>
  </g>
</svg>
