<?xml version="1.0" encoding="UTF-8" ?>

<svg  xmlns="http://www.w3.org/2000/svg" viewBox="0 0 2600 2520">
  <g fill="rgb(255,255,255)">
    <path d="M1208 2078 c-45 -48 -58 -69 -58 -93 0 -65 71 -87 122 -38 l28 27 28 -27 c53 -51 122 -27 122 43 0 28 -10 45 -57 92 -49 49 -63 58 -93 58 -30 -1 -43 -10 -92 -62z"></path>
    <path d="M1130 1801 c-30 -9 -66 -23 -79 -31 -46 -24 -123 -104 -149 -155 l-27 -50 -3 -406 c-3 -397 -2 -407 19 -465 25 -67 100 -149 167 -183 65 -33 149 -51 242 -51 189 0 328 73 402 212 23 43 23 46 26 448 2 290 0 417 -9 448 -27 98 -132 197 -246 232 -86 27 -262 27 -343 1z m303 -124 c67 -30 131 -87 160 -141 21 -39 22 -54 25 -374 3 -373 0 -395 -63 -469 -38 -45 -127 -95 -199 -112 -122 -30 -292 55 -351 174 -18 37 -20 65 -23 367 -2 212 1 341 8 367 22 83 118 174 219 206 64 21 156 13 224 -18z"></path>
    <path d="M1211 962 c-47 -25 -71 -74 -71 -142 0 -109 53 -160 165 -160 106 0 155 51 155 162 0 103 -56 158 -160 158 -34 0 -68 -7 -89 -18z m113 -121 c33 -37 -12 -77 -48 -42 -19 20 -19 21 -1 41 22 25 27 25 49 1z"></path>
  </g>
  <g fill="rgba(255,255,255,0)">
    <path d="M0 1260 l0 -1260 1300 0 1300 0 0 1260 0 1260 -1300 0 -1300 0 0 -1260z m1365 790 c58 -59 58 -60 40 -80 l-19 -21 -43 43 -43 42 -43 -42 c-42 -41 -44 -42 -60 -24 -16 17 -14 22 41 80 31 33 59 61 62 62 3 0 32 -27 65 -60z m78 -280 c114 -35 219 -134 246 -232 9 -31 11 -151 9 -418 -3 -370 -3 -376 -26 -418 -105 -197 -371 -270 -584 -161 -67 34 -142 116 -167 183 -21 58 -22 69 -19 435 l3 376 27 50 c26 51 103 131 149 155 95 52 250 65 362 30z"></path>
    <path d="M1179 1725 c-101 -32 -197 -123 -219 -206 -7 -26 -10 -164 -8 -397 3 -331 4 -360 23 -397 63 -128 243 -208 397 -176 82 16 171 64 213 114 64 74 66 93 63 498 -3 352 -4 365 -25 405 -29 54 -93 111 -162 142 -70 32 -208 41 -282 17z m180 -793 c37 -20 71 -73 71 -110 0 -66 -62 -132 -123 -132 -101 0 -167 103 -119 189 21 38 73 71 112 71 14 0 41 -8 59 -18z"></path>
    <path d="M1270 887 c-13 -7 -31 -25 -40 -40 -13 -24 -13 -30 0 -54 24 -43 61 -59 97 -44 29 12 53 46 53 76 0 19 -41 62 -65 69 -11 3 -31 0 -45 -7z"></path>
  </g>
</svg>
