<svg  xmlns="http://www.w3.org/2000/svg" viewBox="0 0 19200 19200"><g fill="rgb(0,0,0)"><g><path d="M9075 16989 c-125 -9 -477 -44 -605 -60 -237 -29 -764 -151 -1135 -264 -117 -36 -513 -182 -650 -240 -105 -44 -541 -254 -595 -286 -74 -43 -283 -161 -315 -177 -58 -29 -476 -312 -627 -424 -193 -144 -371 -290 -468 -383 -41 -40 -93 -88 -115 -106 -90 -75 -525 -523 -525 -541 0 -4 -8 -12 -19 -17 -49 -27 -404 -487 -577 -751 -57 -85 -107 -160 -112 -166 -18 -21 -90 -141 -167 -279 -42 -77 -90 -160 -104 -185 -24 -39 -118 -232 -246 -505 -46 -98 -237 -599 -274 -721 -121 -394 -238 -899 -271 -1164 -54 -440 -70 -700 -70 -1120 0 -420 16 -680 70 -1120 33 -265 150 -770 271 -1164 37 -122 228 -623 274 -721 128 -273 222 -466 246 -505 14 -25 62 -108 104 -185 77 -138 149 -258 167 -279 5 -6 55 -81 112 -166 173 -264 528 -724 577 -751 11 -5 19 -13 19 -18 0 -4 21 -30 47 -58 27 -27 104 -109 173 -183 69 -73 134 -141 144 -149 11 -9 42 -39 70 -66 28 -28 69 -66 91 -84 22 -18 74 -66 115 -106 97 -93 275 -239 468 -383 151 -112 569 -395 627 -424 32 -16 241 -134 315 -177 54 -32 490 -242 595 -286 134 -57 535 -205 650 -240 371 -113 898 -235 1135 -264 435 -53 714 -71 1130 -71 416 0 695 18 1130 71 237 29 764 151 1135 264 115 35 516 183 650 240 105 44 541 254 595 286 74 43 283 161 315 177 58 29 476 312 627 424 193 144 371 290 468 383 41 40 93 88 115 106 90 75 525 523 525 541 0 4 8 12 19 17 49 27 404 487 577 751 57 85 107 160 112 166 18 21 90 141 167 279 42 77 90 160 104 185 24 39 113 222 246 505 46 98 237 599 274 721 121 396 238 900 271 1164 54 440 70 700 70 1120 0 420 -16 680 -70 1120 -33 264 -150 768 -271 1164 -37 122 -228 623 -274 721 -133 283 -222 466 -246 505 -14 25 -62 108 -104 185 -77 138 -149 258 -167 279 -5 6 -55 81 -112 166 -173 264 -528 724 -577 751 -11 5 -19 13 -19 17 0 18 -435 466 -525 541 -22 18 -74 66 -115 106 -97 93 -275 239 -468 383 -151 112 -569 395 -627 424 -32 16 -241 134 -315 177 -54 32 -490 242 -595 286 -137 58 -533 204 -650 240 -371 113 -898 235 -1135 264 -136 17 -483 50 -630 61 -158 12 -866 11 -1025 -1z m920 -529 c577 -38 943 -101 1470 -250 39 -11 88 -24 110 -29 118 -29 561 -195 791 -297 270 -120 823 -416 888 -476 11 -10 25 -18 32 -18 7 0 14 -3 16 -8 2 -4 57 -43 123 -87 213 -142 517 -372 630 -478 l48 -44 -37 -124 c-21 -68 -44 -146 -51 -174 -23 -85 -216 -514 -276 -615 -9 -14 -53 -88 -99 -165 -192 -321 -364 -532 -687 -845 -178 -173 -229 -218 -270 -242 -18 -11 -33 -24 -33 -29 0 -5 -6 -9 -14 -9 -8 0 -16 -6 -19 -13 -5 -14 -174 -136 -273 -198 -274 -168 -444 -258 -664 -351 -52 -21 -114 -48 -137 -59 -91 -41 -462 -145 -673 -188 -356 -73 -479 -81 -1270 -81 -791 0 -914 8 -1270 81 -211 43 -582 147 -673 188 -23 11 -85 38 -137 59 -219 93 -391 183 -663 351 -98 60 -277 191 -277 202 0 5 -7 9 -15 9 -8 0 -15 4 -15 9 0 5 -15 18 -33 29 -41 24 -89 66 -275 247 -320 310 -489 519 -682 840 -46 77 -90 151 -99 165 -60 101 -253 530 -276 615 -7 28 -30 106 -51 174 l-37 124 48 44 c113 106 417 336 630 478 66 44 122 83 123 87 2 5 9 8 16 8 7 0 21 8 32 18 33 31 349 210 550 314 414 211 873 392 1239 488 17 5 107 28 201 53 319 85 645 145 899 167 72 6 177 15 235 21 241 24 641 28 925 9z m-5281 -2296 c19 -51 44 -114 56 -140 163 -362 175 -384 370 -714 73 -124 290 -420 363 -495 21 -22 51 -55 65 -74 32 -41 36 -46 172 -185 98 -101 168 -167 315 -296 33 -29 74 -64 90 -79 36 -33 236 -181 320 -238 212 -143 511 -305 745 -405 52 -22 100 -44 105 -48 34 -25 426 -151 628 -201 48 -12 87 -25 87 -29 0 -3 -29 -24 -65 -44 -35 -21 -70 -45 -76 -52 -6 -8 -15 -14 -20 -14 -5 0 -17 -7 -26 -15 -10 -8 -67 -54 -128 -102 -227 -180 -512 -493 -658 -724 -244 -384 -402 -827 -459 -1294 -19 -160 -16 -575 6 -740 43 -327 157 -702 293 -970 95 -185 270 -460 340 -533 10 -10 36 -40 58 -67 51 -62 313 -324 350 -350 16 -11 39 -30 51 -43 13 -12 28 -22 34 -22 5 0 10 -4 10 -8 0 -8 161 -127 215 -159 45 -27 236 -133 315 -175 88 -47 358 -147 515 -192 275 -78 552 -110 885 -103 403 9 647 57 1055 207 136 50 329 148 520 263 54 32 215 151 215 159 0 4 5 8 10 8 6 0 21 10 34 23 12 12 35 31 51 42 37 26 299 288 350 350 22 27 48 57 58 67 70 73 245 348 340 533 136 268 250 643 293 970 22 165 25 580 6 740 -57 466 -215 911 -458 1294 -147 231 -432 544 -659 724 -60 48 -118 94 -128 102 -9 8 -21 15 -26 15 -5 0 -14 6 -20 14 -6 7 -41 31 -76 52 -36 20 -65 41 -65 44 0 4 39 17 88 29 219 55 520 152 640 207 31 15 91 41 132 59 214 93 503 252 705 388 240 161 497 379 728 616 130 133 135 138 180 194 20 25 50 59 65 74 65 65 281 364 364 503 173 289 191 324 358 694 34 77 90 227 104 279 l12 47 80 -82 c43 -46 104 -112 134 -147 30 -35 66 -75 79 -90 90 -97 335 -423 456 -606 44 -66 83 -121 87 -123 5 -2 8 -7 8 -12 0 -4 18 -34 39 -66 65 -97 216 -368 310 -554 90 -179 201 -420 201 -437 0 -5 11 -31 24 -59 26 -54 161 -420 194 -524 138 -442 240 -937 277 -1340 30 -335 35 -437 35 -710 0 -273 -5 -375 -35 -710 -37 -403 -139 -898 -277 -1340 -33 -104 -168 -470 -194 -524 -13 -28 -24 -54 -24 -59 0 -17 -111 -258 -201 -437 -94 -186 -245 -457 -310 -554 -21 -32 -39 -62 -39 -66 0 -5 -3 -10 -8 -12 -4 -1 -43 -57 -87 -123 -121 -183 -366 -509 -456 -606 -13 -15 -49 -55 -79 -90 -61 -70 -279 -301 -319 -337 -14 -13 -84 -80 -156 -150 -72 -70 -149 -141 -171 -159 -21 -17 -55 -46 -74 -64 -102 -95 -413 -330 -615 -464 -66 -44 -121 -83 -123 -87 -2 -5 -9 -8 -16 -8 -7 0 -21 -8 -32 -18 -33 -31 -349 -210 -550 -314 -414 -211 -879 -394 -1239 -488 -16 -4 -106 -28 -200 -53 -330 -88 -636 -143 -950 -171 -343 -31 -441 -36 -715 -36 -274 0 -372 5 -715 36 -314 28 -620 83 -950 171 -93 25 -183 49 -200 53 -244 63 -602 193 -901 326 -270 120 -823 416 -888 476 -11 10 -25 18 -32 18 -7 0 -14 3 -16 8 -1 4 -57 43 -123 87 -202 134 -513 369 -615 464 -19 18 -53 47 -74 64 -22 18 -99 89 -171 159 -72 70 -142 137 -156 150 -40 36 -258 267 -319 337 -30 35 -66 75 -79 90 -90 97 -335 423 -456 606 -44 66 -83 122 -87 123 -5 2 -8 7 -8 12 0 4 -18 34 -39 66 -65 97 -216 368 -310 554 -90 179 -201 420 -201 437 0 5 -11 31 -24 59 -26 54 -161 420 -194 524 -138 442 -240 937 -277 1340 -30 335 -35 437 -35 710 0 273 5 375 35 710 37 403 139 898 277 1340 33 104 168 470 194 524 13 28 24 54 24 59 0 17 111 258 201 437 94 186 245 457 310 554 21 32 39 62 39 66 0 5 3 10 8 12 4 2 43 57 87 123 121 183 366 509 456 606 13 15 49 55 79 90 30 35 91 101 134 147 l80 82 12 -47 c7 -27 28 -89 48 -139z m5257 -3043 c211 -37 348 -78 578 -173 302 -125 546 -292 796 -542 139 -139 218 -236 334 -408 81 -121 211 -368 211 -401 0 -4 9 -26 19 -50 86 -191 160 -521 177 -794 15 -247 -38 -574 -144 -883 -57 -167 -172 -399 -274 -555 -80 -123 -91 -137 -192 -249 -39 -43 -82 -92 -96 -109 -14 -17 -34 -38 -44 -46 -39 -32 -152 -134 -168 -152 -9 -11 -21 -19 -26 -19 -5 0 -12 -6 -15 -14 -7 -19 -242 -173 -362 -238 -248 -135 -525 -229 -820 -279 -186 -32 -504 -32 -690 0 -295 50 -572 144 -820 279 -120 65 -355 219 -362 238 -3 8 -11 14 -19 14 -8 0 -14 4 -14 8 0 4 -39 41 -86 82 -83 72 -101 89 -141 137 -11 12 -51 57 -90 100 -100 111 -111 125 -191 248 -102 156 -217 388 -274 555 -106 309 -159 636 -144 883 17 273 91 603 177 794 10 24 19 46 19 50 0 33 130 280 211 401 116 172 195 269 334 408 250 250 494 417 796 542 236 97 402 146 600 176 157 24 168 24 394 21 156 -2 240 -9 326 -24z"></path></g></g><g fill="rgb(255,255,255)"><g><path d="M0 9600 l0 -9600 9600 0 9600 0 0 9600 0 9600 -9600 0 -9600 0 0 -9600z m10078 7359 c81 -5 228 -19 327 -30 99 -11 211 -22 248 -25 142 -10 578 -100 865 -180 89 -25 170 -47 180 -49 66 -13 318 -99 491 -166 113 -45 211 -82 216 -83 44 -12 117 -45 435 -197 107 -51 215 -105 240 -120 74 -43 283 -161 315 -177 58 -29 476 -312 627 -424 193 -144 371 -290 468 -383 41 -40 93 -88 115 -106 90 -75 525 -523 525 -541 0 -4 8 -12 19 -17 49 -27 404 -487 577 -751 57 -85 107 -160 112 -166 18 -21 90 -141 167 -279 42 -77 90 -160 104 -185 24 -39 113 -222 246 -505 46 -98 237 -599 274 -721 132 -431 256 -978 276 -1214 2 -25 13 -130 24 -235 34 -310 41 -452 41 -805 0 -353 -7 -495 -41 -805 -11 -104 -22 -210 -24 -235 -20 -236 -144 -783 -276 -1214 -37 -122 -228 -623 -274 -721 -133 -283 -222 -466 -246 -505 -14 -25 -62 -108 -104 -185 -77 -138 -149 -258 -167 -279 -5 -6 -55 -81 -112 -166 -173 -264 -528 -724 -577 -751 -11 -5 -19 -13 -19 -17 0 -18 -435 -466 -525 -541 -22 -18 -74 -66 -115 -106 -97 -93 -275 -239 -468 -383 -151 -112 -569 -395 -627 -424 -32 -16 -241 -134 -315 -177 -25 -15 -133 -69 -240 -120 -319 -153 -393 -186 -435 -197 -5 -1 -103 -38 -217 -83 -174 -67 -424 -153 -490 -166 -10 -2 -91 -24 -180 -49 -287 -80 -723 -170 -865 -180 -37 -3 -149 -14 -248 -25 -295 -33 -456 -41 -805 -41 -349 0 -510 8 -805 41 -99 11 -211 22 -248 25 -142 10 -578 100 -865 180 -89 25 -170 47 -180 49 -66 13 -316 99 -490 166 -114 45 -211 82 -217 83 -42 11 -116 44 -435 197 -107 51 -215 105 -240 120 -74 43 -283 161 -315 177 -58 29 -476 312 -627 424 -193 144 -371 290 -468 383 -41 40 -93 88 -115 106 -22 18 -63 56 -91 84 -28 27 -59 57 -70 66 -10 8 -75 76 -144 149 -69 74 -146 156 -172 183 -27 28 -48 54 -48 58 0 5 -8 13 -19 18 -49 27 -404 487 -577 751 -57 85 -107 160 -112 166 -18 21 -90 141 -167 279 -42 77 -90 160 -104 185 -24 39 -118 232 -246 505 -46 98 -237 599 -274 721 -131 429 -256 978 -276 1214 -2 25 -13 131 -24 235 -34 310 -41 452 -41 805 0 353 7 495 41 805 11 105 22 210 24 235 20 236 145 785 276 1214 37 122 228 623 274 721 128 273 222 466 246 505 14 25 62 108 104 185 77 138 149 258 167 279 5 6 55 81 112 166 173 264 528 724 577 751 11 5 19 13 19 17 0 18 435 466 525 541 22 18 74 66 115 106 97 93 275 239 468 383 151 112 569 395 627 424 32 16 241 134 315 177 25 15 133 69 240 120 318 152 391 185 435 197 6 1 103 38 216 83 173 67 425 153 491 166 10 2 91 24 180 49 283 79 727 171 861 180 34 2 148 13 252 25 105 12 242 25 305 30 169 12 808 13 978 0z"></path><path d="M9450 16503 c-142 -3 -417 -20 -528 -34 -46 -5 -109 -10 -140 -10 -127 -1 -572 -85 -876 -166 -94 -25 -184 -48 -201 -53 -249 -65 -602 -193 -901 -326 -270 -120 -823 -416 -888 -476 -11 -10 -25 -18 -32 -18 -7 0 -14 -3 -16 -8 -1 -4 -57 -43 -123 -87 -197 -131 -514 -370 -610 -459 -16 -16 -42 -38 -57 -51 -23 -20 -26 -27 -19 -52 5 -15 26 -82 46 -148 20 -66 39 -129 41 -141 14 -73 214 -526 285 -644 9 -14 53 -88 99 -165 193 -321 362 -530 682 -840 186 -181 234 -223 275 -247 18 -11 33 -24 33 -29 0 -5 7 -9 15 -9 8 0 15 -4 15 -9 0 -11 179 -142 277 -202 272 -168 444 -258 663 -351 52 -21 114 -48 137 -59 91 -41 462 -145 673 -188 358 -74 476 -81 1300 -81 824 0 942 7 1300 81 211 43 582 147 673 188 23 11 85 38 137 59 220 93 390 183 664 351 99 62 268 184 273 198 3 7 11 13 19 13 8 0 14 4 14 9 0 5 15 18 33 29 41 24 92 69 270 242 323 313 495 524 687 845 46 77 90 151 99 165 71 118 271 571 285 644 2 12 21 75 41 141 20 66 41 133 46 148 7 25 4 32 -19 52 -15 13 -40 35 -57 51 -96 89 -413 328 -610 459 -66 44 -121 83 -123 87 -2 5 -9 8 -16 8 -7 0 -21 8 -32 18 -33 31 -349 210 -550 314 -414 211 -873 392 -1239 488 -16 5 -107 28 -201 53 -304 81 -749 165 -876 166 -31 0 -94 5 -140 10 -188 23 -577 39 -828 34z"></path><path d="M4560 14316 c-52 -56 -120 -130 -150 -165 -30 -35 -66 -75 -79 -90 -90 -97 -335 -423 -456 -606 -44 -66 -83 -121 -87 -123 -5 -2 -8 -7 -8 -12 0 -4 -18 -34 -39 -66 -65 -97 -216 -368 -310 -554 -84 -166 -200 -418 -205 -443 -1 -7 -10 -30 -20 -52 -51 -115 -231 -615 -221 -615 3 0 0 -12 -5 -26 -19 -49 -118 -439 -149 -584 -43 -206 -82 -442 -87 -535 -2 -44 -9 -120 -14 -170 -43 -392 -43 -958 0 -1350 5 -49 12 -126 14 -170 5 -93 44 -329 87 -535 31 -145 130 -535 149 -584 5 -14 8 -26 5 -26 -10 0 170 -500 221 -615 10 -22 19 -45 20 -52 5 -25 121 -277 205 -443 94 -186 245 -457 310 -554 21 -32 39 -62 39 -66 0 -5 3 -10 8 -12 4 -1 43 -57 87 -123 121 -183 366 -509 456 -606 13 -15 49 -55 79 -90 61 -70 279 -301 319 -337 14 -13 84 -80 156 -150 72 -70 149 -141 171 -159 21 -17 55 -46 74 -64 102 -95 413 -330 615 -464 66 -44 122 -83 123 -87 2 -5 9 -8 16 -8 7 0 21 -8 32 -18 33 -31 349 -210 550 -314 414 -211 879 -394 1239 -488 17 -4 107 -28 200 -53 297 -79 749 -165 877 -166 31 0 94 -5 140 -10 364 -44 992 -44 1356 0 46 5 109 10 140 10 128 1 580 87 877 166 94 25 184 49 200 53 244 63 602 193 901 326 270 120 823 416 888 476 11 10 25 18 32 18 7 0 14 3 16 8 2 4 57 43 123 87 202 134 513 369 615 464 19 18 53 47 74 64 22 18 99 89 171 159 72 70 142 137 156 150 40 36 258 267 319 337 30 35 66 75 79 90 90 97 335 423 456 606 44 66 83 122 87 123 5 2 8 7 8 12 0 4 18 34 39 66 65 97 216 368 310 554 84 166 200 418 205 443 1 7 10 30 20 52 51 115 231 615 221 615 -3 0 0 12 5 26 19 49 118 439 149 584 43 206 82 442 87 535 2 44 9 121 14 170 43 392 43 958 0 1350 -5 50 -12 126 -14 170 -5 93 -44 329 -87 535 -31 145 -130 535 -149 584 -5 14 -8 26 -5 26 10 0 -170 500 -221 615 -10 22 -19 45 -20 52 -5 25 -121 277 -205 443 -94 186 -245 457 -310 554 -21 32 -39 62 -39 66 0 5 -3 10 -8 12 -4 2 -43 57 -87 123 -121 183 -366 509 -456 606 -13 15 -49 55 -79 90 -82 96 -244 266 -253 268 -9 1 -25 -38 -32 -80 -6 -33 -70 -207 -105 -284 -169 -375 -185 -405 -358 -695 -83 -139 -299 -438 -364 -503 -15 -15 -45 -49 -65 -74 -45 -56 -50 -61 -180 -194 -231 -237 -488 -455 -728 -616 -202 -136 -491 -295 -705 -388 -41 -18 -102 -45 -134 -60 -63 -29 -231 -91 -268 -100 -13 -2 -79 -22 -148 -43 -69 -21 -185 -54 -259 -72 -107 -27 -131 -36 -116 -44 72 -44 161 -102 163 -108 2 -5 7 -6 12 -3 4 2 15 -4 25 -15 10 -11 22 -20 26 -20 5 0 17 -7 26 -15 10 -8 68 -54 128 -102 227 -180 512 -493 659 -724 266 -419 432 -921 467 -1414 9 -117 0 -440 -16 -560 -39 -319 -155 -701 -292 -970 -95 -185 -270 -460 -340 -533 -10 -10 -36 -40 -58 -67 -51 -62 -313 -324 -350 -350 -16 -11 -39 -30 -51 -42 -13 -13 -28 -23 -34 -23 -5 0 -10 -4 -10 -8 0 -8 -161 -127 -215 -159 -191 -115 -384 -213 -520 -263 -397 -146 -649 -196 -1025 -207 -299 -8 -587 27 -855 103 -157 45 -427 145 -515 192 -79 42 -270 148 -315 175 -54 32 -215 151 -215 159 0 4 -5 8 -10 8 -6 0 -21 10 -34 23 -12 12 -35 31 -51 42 -37 26 -299 288 -350 350 -22 27 -48 57 -58 67 -70 73 -245 348 -340 533 -137 269 -253 651 -292 970 -16 120 -25 443 -16 560 35 494 200 994 468 1414 146 231 431 544 658 724 61 48 118 94 128 102 9 8 21 15 26 15 4 0 16 9 26 20 10 11 21 17 25 15 5 -3 10 -2 12 3 2 6 91 64 163 108 15 8 -9 17 -116 44 -74 18 -190 51 -259 72 -69 21 -136 41 -149 44 -33 7 -244 85 -256 94 -5 4 -53 26 -105 48 -234 100 -533 262 -745 405 -84 57 -284 205 -320 238 -16 15 -57 50 -90 79 -147 129 -217 195 -315 296 -136 139 -140 144 -172 185 -14 19 -44 52 -65 74 -73 75 -290 371 -363 495 -196 331 -204 347 -370 715 -35 77 -99 251 -105 284 -7 42 -23 81 -32 80 -5 -1 -51 -47 -103 -103z"></path><path d="M9355 11173 c-298 -39 -459 -82 -734 -195 -302 -125 -546 -292 -796 -542 -139 -139 -218 -236 -334 -408 -81 -121 -211 -368 -211 -401 0 -4 -9 -26 -19 -50 -127 -281 -202 -753 -172 -1087 23 -265 98 -574 187 -775 10 -22 19 -45 20 -52 5 -29 147 -289 209 -384 77 -117 89 -132 188 -242 39 -43 79 -88 90 -100 40 -48 58 -65 141 -137 47 -41 86 -78 86 -82 0 -4 6 -8 14 -8 8 0 16 -6 19 -14 7 -19 242 -173 362 -238 248 -135 524 -228 820 -279 111 -19 167 -23 375 -23 208 0 264 4 375 23 296 51 572 144 820 279 120 65 355 219 362 238 3 8 10 14 15 14 5 0 17 8 26 19 16 18 129 120 168 152 10 8 30 29 44 46 14 17 57 66 96 109 100 110 112 126 189 243 62 95 204 355 209 384 1 7 10 30 20 52 89 201 164 510 187 775 30 334 -45 806 -172 1087 -10 24 -19 46 -19 50 0 33 -130 280 -211 401 -116 172 -195 269 -334 408 -250 250 -494 417 -796 542 -171 70 -231 91 -363 127 -209 55 -312 68 -581 70 -137 1 -263 1 -280 -2z"></path></g></g></svg>
